<svg width="96" height="107" viewBox="0 0 96 107" fill="none" xmlns="http://www.w3.org/2000/svg">
<path d="M29.6857 69.4795L69.5507 42.6227L69.4532 42.1309C69.0485 40.7914 67.0686 34.1925 65.3353 32.7837L64.9267 32.5242L64.0553 33.1112C63.6359 32.3767 62.861 31.2264 61.8056 30.1972C60.0711 28.518 57.0071 26.5443 52.4206 26.9448L52.1691 26.9409L36.9151 37.24L21.6662 47.5131L21.5579 47.7217C19.4674 51.8271 20.1717 55.4357 21.0832 57.6618C21.6336 59.0161 22.4103 60.1577 22.9334 60.8223L22.0621 61.4094L22.1945 61.9529C22.849 64.0885 28.1983 68.3797 29.2928 69.2545L29.6857 69.4795ZM23.0711 48.7589L37.9205 38.7324L52.7855 28.6953C58.9568 28.2743 61.7574 32.6328 62.5443 34.1367L24.4479 59.802C23.3394 58.5148 20.3592 54.315 23.0711 48.7589ZM25.6411 61.0247L63.2396 35.6948L63.2292 35.7018L64.6555 34.7409C65.5877 36.1469 66.7483 39.4255 67.5034 41.9679L29.8479 67.3362C27.7737 65.69 25.1243 63.3692 24.1889 62.003L25.6411 61.0247Z" fill="url(#paint0_linear_327_621)"/>
<path d="M23.3605 44.9623L36.4187 36.4966C36.4238 36.4931 36.429 36.4896 36.4342 36.4861C36.4394 36.4826 36.4446 36.4791 36.4498 36.4756L49.1903 27.5609C49.7176 27.1906 49.9385 26.5672 49.7226 25.9668C49.5032 25.3613 48.9415 25.0089 48.2828 25.061C48.0402 25.0813 47.8426 25.1014 47.7039 25.1195C46.6814 25.2358 45.7454 25.324 44.83 25.3757C42.8173 25.4886 40.9999 25.4549 39.2668 25.2665C36.5465 24.9671 33.0014 24.0031 31.5702 21.1176C31.4758 20.9327 31.383 20.739 31.2938 20.5505C31.0575 20.0543 30.8107 19.5425 30.5085 19.038C29.8797 17.9926 28.8811 16.4656 27.4888 15.3168C25.9172 14.0025 24.2073 13.58 22.6854 14.1081C22.2647 14.2559 21.943 14.4275 21.6838 14.6473C21.0429 15.1845 20.4868 15.7023 20.1544 16.6193C19.4966 18.4411 19.9742 20.5828 21.6225 23.1637C22.0677 23.8582 22.5824 24.5661 23.1977 25.3117C23.4017 25.5585 23.6039 25.7914 23.7991 26.014C24.3881 26.6869 24.897 27.2632 25.2125 28.0225C26.2816 30.5943 25.3994 33.863 24.5073 36.4227C23.7761 38.5275 22.761 40.7256 21.4122 43.156C21.0922 43.7332 21.1766 44.3845 21.6519 44.8327C22.136 45.2825 22.8055 45.3136 23.3605 44.9623ZM26.211 37.0152C27.2076 34.1516 28.1849 30.4647 26.8793 27.3289C26.4499 26.2998 25.7911 25.5458 25.1533 24.8229C24.9651 24.6107 24.7699 24.3882 24.5886 24.1638C24.0168 23.4717 23.544 22.8259 23.1372 22.1885C21.8102 20.1068 21.3886 18.4848 21.846 17.2274C22.0294 16.7272 22.3385 16.4361 22.8378 16.0244C22.9346 15.9441 23.0782 15.8775 23.2721 15.8071C24.4858 15.3812 25.7118 16.1825 26.3366 16.6957C27.5148 17.6723 28.3982 19.0284 28.9589 19.9614C29.2174 20.3899 29.4345 20.8464 29.6655 21.3236C29.7617 21.5224 29.858 21.7212 29.9507 21.9149C31.744 25.5282 35.8969 26.7005 39.0666 27.0512C40.9003 27.2547 42.8201 27.2948 44.9333 27.1744C45.5938 27.1362 46.2664 27.0824 46.9736 27.0128L35.5126 35.1181L23.7112 42.6845C24.7636 40.6872 25.5843 38.816 26.211 37.0152Z" fill="url(#paint1_linear_327_621)"/>
<path d="M82.1281 74.0309C81.6029 70.9344 80.1841 68.4926 80.123 68.3907L79.0005 69.0415C79.0144 69.0622 80.4257 71.3809 80.9031 74.261C81.5264 77.9845 80.628 80.6916 77.8323 82.575L78.5375 83.6217C81.3418 81.74 82.8402 78.2445 82.1281 74.0309Z" fill="url(#paint2_linear_327_621)"/>
<path d="M51.8316 98.2224C53.5936 99.0694 55.1877 99.9693 56.7225 100.412C59.2418 101.14 63.8354 99.2058 70.4381 94.7576C72.0459 93.6744 73.3231 92.6935 73.9608 92.2186C74.6353 91.8094 75.9962 90.9529 77.6041 89.8697L77.6006 89.8645C84.2137 85.4093 87.7023 81.8235 87.97 79.2099C88.5171 73.8993 87.4235 64.5639 82.1831 60.591C74.1729 54.5215 72.0711 48.178 71.5401 45.7333C71.4091 45.1134 70.9105 44.5077 70.3181 44.2664C69.7258 44.0251 68.9905 44.0082 68.4614 44.3646L31.7032 69.1284C31.1742 69.4848 30.9223 70.1743 30.9147 70.8122C30.9123 71.4467 31.255 72.0897 31.7802 72.444C33.8465 73.8544 39.0795 78.1186 41.6955 87.8221C42.8712 92.1753 46.9692 95.818 51.3828 97.9145C51.4697 97.954 51.5497 98.0055 51.6245 98.0606L51.8316 98.2224ZM32.6919 70.7751C32.6917 70.73 32.6129 70.5571 32.6493 70.5326L69.4074 45.7689C69.4437 45.7444 69.5744 45.8824 69.6161 45.8995C69.67 45.9235 69.7329 46.0393 69.7347 46.0531C70.0674 47.5768 70.8021 49.8315 72.2855 52.3804C55.8762 57.4386 41.8825 71.2204 37.6814 75.6628C35.8817 73.3496 34.0664 71.8078 32.7828 70.9323C32.7671 70.9203 32.6887 70.8375 32.6919 70.7751ZM71.5608 53.9685C58.7552 67.4094 44.8527 73.9278 38.8356 76.3015C43.1456 71.7857 56.2181 59.0992 71.5608 53.9685ZM42.9461 85.9399L48.916 81.918L47.9735 80.519L42.2837 84.3522C42.1132 83.45 41.3885 81.9042 41.066 81.112L48.1925 76.3109L47.25 74.9118L40.2531 79.6256C39.8545 78.8771 39.4422 78.1981 39.0197 77.5486C42.5546 76.1691 49.0515 73.2989 56.5048 68.2777C61.8471 64.6786 67.6839 59.9779 73.2723 53.9681C74.988 56.5036 77.4747 59.2882 81.0866 62.0303C85.7041 65.5264 86.6566 74.3165 86.1676 79.0305C85.9681 80.9955 82.47 84.3993 76.5779 88.3688C75.0011 89.431 73.6592 90.2598 73.0002 90.6585C72.9743 90.6759 72.9484 90.6934 72.9224 90.7109C72.8965 90.7284 72.8706 90.7458 72.8446 90.7633C72.2276 91.2242 70.9642 92.1582 69.3874 93.2205C63.5057 97.183 59.1172 99.243 57.2161 98.6931C56.0528 98.3544 54.4554 97.4944 53.3203 97.2421L57.3918 94.4991L56.4493 93.1001L51.8176 96.2205C50.8069 95.8843 49.3768 94.8137 48.5304 94.3745L53.1673 91.2506L52.2248 89.8516L47.2766 93.1851C46.5253 92.6742 45.4168 91.387 44.9386 90.6997L49.643 87.5304L48.7005 86.1313L44.048 89.2657C43.6338 88.5277 43.5455 88.1728 43.3797 87.5462C43.2194 86.9612 42.8061 86.0343 42.9461 85.9399Z" fill="url(#paint3_linear_327_621)"/>
<defs>
<linearGradient id="paint0_linear_327_621" x1="25.9724" y1="48.5557" x2="50.194" y2="52.1051" gradientUnits="userSpaceOnUse">
<stop stop-color="#2C5E5B"/>
<stop offset="1" stop-color="#415C7A"/>
</linearGradient>
<linearGradient id="paint1_linear_327_621" x1="15.5433" y1="23.3706" x2="34.5177" y2="21.0277" gradientUnits="userSpaceOnUse">
<stop stop-color="#2C5E5B"/>
<stop offset="1" stop-color="#415C7A"/>
</linearGradient>
<linearGradient id="paint2_linear_327_621" x1="74.5563" y1="74.1014" x2="80.238" y2="72.4929" gradientUnits="userSpaceOnUse">
<stop stop-color="#2C5E5B"/>
<stop offset="1" stop-color="#415C7A"/>
</linearGradient>
<linearGradient id="paint3_linear_327_621" x1="41.3962" y1="70.0879" x2="69.7286" y2="65.4679" gradientUnits="userSpaceOnUse">
<stop stop-color="#2C5E5B"/>
<stop offset="1" stop-color="#415C7A"/>
</linearGradient>
</defs>
</svg>
