<svg width="105" height="140" viewBox="0 0 105 140" fill="none" xmlns="http://www.w3.org/2000/svg">
<g opacity="0.55">
<path d="M7.34144 129.66C6.81706 129.649 6.12533 129.878 5.43359 130.404C5.61768 129.828 5.61768 129.358 5.49496 128.984C6.58276 128.548 7.45859 128.855 7.34144 129.66Z" fill="white"/>
</g>
<g opacity="0.55">
<path d="M7.37891 131.914C8.31609 130.958 8.39977 130.242 8.02601 129.895C10.8376 128.056 12.9462 128.106 13.2419 129.414C12.0704 129.096 9.90039 129.811 7.37891 131.914Z" fill="white"/>
</g>
<g opacity="0.55">
<path d="M14.4974 134.263C13.9061 134.112 13.0024 134.173 11.7305 134.638C12.2046 134.168 12.5951 133.726 12.9243 133.312C13.9674 133.301 14.4472 133.754 14.4974 134.263Z" fill="white"/>
</g>
<g opacity="0.55">
<path d="M20.0867 136.846C18.9264 136.281 16.7396 136.013 14.0898 136.477C14.8318 136.371 15.2948 135.873 15.3729 135.375C18.0562 135.286 19.9138 136.002 20.0867 136.846Z" fill="white"/>
</g>
<g opacity="0.55">
<path d="M93.1551 129.66C93.6794 129.649 94.3712 129.878 95.0629 130.404C94.8788 129.828 94.8788 129.358 95.0015 128.984C93.9137 128.548 93.0379 128.855 93.1551 129.66Z" fill="white"/>
</g>
<g opacity="0.55">
<path d="M93.1169 131.914C92.1797 130.958 92.096 130.242 92.4698 129.895C89.6582 128.056 87.5496 128.106 87.2539 129.414C88.4254 129.096 90.5954 129.811 93.1169 131.914Z" fill="white"/>
</g>
<g opacity="0.55">
<path d="M86 134.263C86.5913 134.112 87.495 134.173 88.7669 134.638C88.2928 134.168 87.9023 133.726 87.5731 133.312C86.53 133.301 86.0502 133.754 86 134.263Z" fill="white"/>
</g>
<g opacity="0.55">
<path d="M80.4102 136.846C81.5705 136.281 83.7573 136.013 86.407 136.477C85.6651 136.371 85.2021 135.873 85.124 135.375C82.4407 135.286 80.5831 136.002 80.4102 136.846Z" fill="white"/>
</g>
<path d="M63.2952 95.5999H37.0985C36.6801 95.5999 36.3398 95.2588 36.3398 94.8394V68.5852C36.3398 68.1658 36.6801 67.8247 37.0985 67.8247H63.2896C63.708 67.8247 64.0483 68.1658 64.0483 68.5852V94.8394C64.0538 95.2588 63.7135 95.5999 63.2952 95.5999ZM37.8572 94.0789H62.5365V69.3457H37.8572V94.0789Z" fill="url(#paint0_linear_326_488)"/>
<path d="M80.5702 89.1636V139.239H19.8203V89.1636H26.5703V92.5355H33.3203V89.1636H40.0703V92.5355H46.8203V89.1636H53.5702V92.5355H60.3258V89.1636H67.0702V92.5355H73.8258V89.1636H80.5702Z" fill="white"/>

<path d="M67.1098 139.38H62.1115V122.173C62.1115 115.591 56.7673 110.234 50.2014 110.234C43.6355 110.234 38.2913 115.591 38.2913 122.173V139.38H33.293V122.179C33.293 112.829 40.8797 105.229 50.2014 105.229C59.5287 105.229 67.1098 112.835 67.1098 122.179V139.38ZM62.3849 139.1H66.8253V122.179C66.8253 112.986 59.3613 105.509 50.1958 105.509C41.0303 105.509 33.5663 112.991 33.5663 122.179V139.1H38.0068V122.173C38.0068 115.435 43.4737 109.955 50.1958 109.955C56.9179 109.955 62.3849 115.435 62.3849 122.173V139.1V139.1Z" fill="url(#paint1_linear_326_488)"/>
<path d="M66.9685 140H62.2491C61.8307 140 61.4904 139.659 61.4904 139.239V122.173C61.4904 115.932 56.4251 110.855 50.1995 110.855C43.9739 110.855 38.9086 115.932 38.9086 122.173V139.239C38.9086 139.659 38.5684 140 38.15 140H33.4305C33.0122 140 32.6719 139.659 32.6719 139.239V122.178C32.6719 112.487 40.5376 104.608 50.1995 104.608C59.8671 104.608 67.7272 112.493 67.7272 122.178V139.239C67.7272 139.659 67.3869 140 66.9685 140ZM63.0022 138.479H66.2042V122.178C66.2042 113.326 59.0191 106.124 50.1884 106.124C41.3576 106.124 34.1781 113.326 34.1781 122.178V138.479H37.3801V122.173C37.3801 115.093 43.126 109.334 50.1884 109.334C57.2508 109.334 62.9966 115.093 62.9966 122.173V138.479H63.0022Z" fill="url(#paint2_linear_326_488)"/>
<path d="M62.2445 140H38.1454C37.727 140 37.3867 139.659 37.3867 139.24V122.173C37.3867 115.094 43.1326 109.334 50.195 109.334C57.2573 109.334 63.0032 115.094 63.0032 122.173V139.24C63.0032 139.659 62.6629 140 62.2445 140ZM38.9041 138.479H61.4858V122.173C61.4858 115.932 56.4206 110.855 50.195 110.855C43.9693 110.855 38.9041 115.932 38.9041 122.173V138.479V138.479Z" fill="url(#paint3_linear_326_488)"/>
<path d="M62.2445 140H38.1454C37.727 140 37.3867 139.659 37.3867 139.24V122.173C37.3867 115.094 43.1326 109.334 50.195 109.334C57.2573 109.334 63.0032 115.094 63.0032 122.173V139.24C63.0032 139.659 62.6629 140 62.2445 140ZM38.9041 138.479H61.4858V122.173C61.4858 115.932 56.4206 110.855 50.195 110.855C43.9693 110.855 38.9041 115.932 38.9041 122.173V138.479V138.479Z" fill="url(#paint4_linear_326_488)"/>

<path d="M43.0476 113.215C42.7965 113.215 42.5511 113.086 42.406 112.857L39.8901 108.847C39.667 108.49 39.773 108.02 40.13 107.796C40.487 107.573 40.9556 107.679 41.1788 108.037L43.6947 112.046C43.9178 112.404 43.8118 112.874 43.4548 113.097C43.3209 113.176 43.1815 113.215 43.0476 113.215Z" fill="url(#paint5_linear_326_488)"/>
<path d="M57.3442 113.215C57.2047 113.215 57.0652 113.176 56.9425 113.097C56.5855 112.874 56.4795 112.404 56.7026 112.046L59.2185 108.037C59.4417 107.684 59.9103 107.573 60.2673 107.796C60.6243 108.02 60.7303 108.49 60.5072 108.848L57.9913 112.857C57.8407 113.092 57.5952 113.215 57.3442 113.215Z" fill="url(#paint6_linear_326_488)"/>
<path d="M50.194 139.849C49.8593 139.849 49.5859 139.575 49.5859 139.239V110.1C49.5859 109.764 49.8593 109.49 50.194 109.49C50.5287 109.49 50.8021 109.764 50.8021 110.1V139.239C50.8021 139.575 50.5287 139.849 50.194 139.849Z" fill="url(#paint7_linear_326_488)"/>
<path d="M53.4689 132.099H53.2179C52.7381 132.099 52.3477 131.707 52.3477 131.226V128.57C52.3477 128.089 52.7381 127.698 53.2179 127.698H53.4689C53.9487 127.698 54.3392 128.089 54.3392 128.57V131.226C54.3336 131.707 53.9487 132.099 53.4689 132.099Z" fill="url(#paint8_linear_326_488)"/>
<path d="M47.1721 132.099H46.921C46.4413 132.099 46.0508 131.707 46.0508 131.226V128.57C46.0508 128.089 46.4413 127.698 46.921 127.698H47.1721C47.6518 127.698 48.0423 128.089 48.0423 128.57V131.226C48.0423 131.707 47.6518 132.099 47.1721 132.099Z" fill="url(#paint9_linear_326_488)"/>

<path d="M80.5711 140H19.8212C19.4028 140 19.0625 139.659 19.0625 139.24V89.1638C19.0625 88.7444 19.4028 88.4033 19.8212 88.4033H26.5712C26.9895 88.4033 27.3298 88.7444 27.3298 89.1638V91.7753H32.568V89.1638C32.568 88.7444 32.9083 88.4033 33.3267 88.4033H40.0767C40.4951 88.4033 40.8354 88.7444 40.8354 89.1638V91.7753H46.0736V89.1638C46.0736 88.7444 46.4139 88.4033 46.8323 88.4033H53.5823C54.0007 88.4033 54.3409 88.7444 54.3409 89.1638V91.7753H59.5792V89.1638C59.5792 88.7444 59.9194 88.4033 60.3378 88.4033H67.0878C67.5062 88.4033 67.8465 88.7444 67.8465 89.1638V91.7753H73.0847V89.1638C73.0847 88.7444 73.425 88.4033 73.8434 88.4033H80.5934C81.0118 88.4033 81.352 88.7444 81.352 89.1638V139.24C81.3297 139.659 80.9894 140 80.5711 140ZM20.5799 138.479H79.8124V89.9243H74.5853V92.5358C74.5853 92.9552 74.245 93.2963 73.8266 93.2963H67.0711C66.6527 93.2963 66.3124 92.9552 66.3124 92.5358V89.9243H61.0853V92.5358C61.0853 92.9552 60.7451 93.2963 60.3267 93.2963H53.5711C53.1527 93.2963 52.8124 92.9552 52.8124 92.5358V89.9243H47.5798V92.5358C47.5798 92.9552 47.2395 93.2963 46.8211 93.2963H40.0711C39.6527 93.2963 39.3125 92.9552 39.3125 92.5358V89.9243H34.0798V92.5358C34.0798 92.9552 33.7395 93.2963 33.3211 93.2963H26.5712C26.1528 93.2963 25.8125 92.9552 25.8125 92.5358V89.9243H20.5799V138.479Z" fill="url(#paint10_linear_326_488)"/>

<path d="M96.7647 84.1421H80.5703V139.245H96.7647V84.1421Z" fill="white"/>
<path d="M96.7656 140H80.5712C80.1528 140 79.8125 139.659 79.8125 139.24V84.1365C79.8125 83.7171 80.1528 83.376 80.5712 83.376H96.7656C97.184 83.376 97.5242 83.7171 97.5242 84.1365V139.24C97.5242 139.659 97.1895 140 96.7656 140ZM81.3299 138.479H96.0069V84.897H81.3299V138.479Z" fill="url(#paint11_linear_326_488)"/>
<path d="M91.9735 104.776H85.787C85.1232 104.776 84.582 104.234 84.582 103.569V102.534C84.582 101.869 85.1232 101.326 85.787 101.326H91.9735C92.6374 101.326 93.1785 101.869 93.1785 102.534V103.569C93.1785 104.234 92.6374 104.776 91.9735 104.776ZM91.9735 103.557V104.167V103.557ZM91.9624 102.534L85.787 102.545L85.7981 103.569L91.968 103.557V102.534H91.9624Z" fill="url(#paint12_linear_326_488)"/>
<path d="M91.3352 102.545H86.4206C86.0858 102.545 85.8125 102.271 85.8125 101.936V96.3883C85.8125 94.694 87.1848 93.3184 88.8751 93.3184C90.5654 93.3184 91.9377 94.694 91.9377 96.3883V101.936C91.9377 102.271 91.6699 102.545 91.3352 102.545ZM87.0286 101.326H90.7272V96.3883C90.7272 95.365 89.896 94.5374 88.8807 94.5374C87.8598 94.5374 87.0342 95.3706 87.0342 96.3883V101.326H87.0286Z" fill="url(#paint13_linear_326_488)"/>
<path d="M91.9735 127.48H85.787C85.1232 127.48 84.582 126.937 84.582 126.272V125.237C84.582 124.572 85.1232 124.029 85.787 124.029H91.9735C92.6374 124.029 93.1785 124.572 93.1785 125.237V126.272C93.1785 126.943 92.6374 127.48 91.9735 127.48ZM91.9735 126.266V126.876V126.266ZM91.9624 125.243L85.787 125.254L85.7981 126.277L91.968 126.266V125.243H91.9624Z" fill="url(#paint14_linear_326_488)"/>
<path d="M91.3352 125.254H86.4206C86.0858 125.254 85.8125 124.98 85.8125 124.645V119.097C85.8125 117.403 87.1848 116.027 88.8751 116.027C90.5654 116.027 91.9377 117.403 91.9377 119.097V124.645C91.9377 124.98 91.6699 125.254 91.3352 125.254ZM87.0286 124.035H90.7272V119.097C90.7272 118.074 89.896 117.246 88.8807 117.246C87.8598 117.246 87.0342 118.08 87.0342 119.097V124.035H87.0286Z" fill="url(#paint15_linear_326_488)"/>
<path d="M100.257 73.07H77.5028C77.235 73.07 76.9896 72.9302 76.8501 72.6953C76.7162 72.4661 76.7106 72.1809 76.8389 71.9404L88.2135 51.1104C88.3474 50.8644 88.604 50.7134 88.8773 50.7134C89.1507 50.7134 89.4073 50.8644 89.5412 51.1104L100.921 71.9404C101.05 72.1753 101.044 72.4605 100.91 72.6953C100.771 72.9302 100.525 73.07 100.257 73.07ZM78.7803 71.549H98.9744L88.8773 53.062L78.7803 71.549Z" fill="url(#paint16_linear_326_488)"/>

<path d="M97.9301 83.1244H79.7274C79.309 83.1244 78.9688 82.7833 78.9688 82.3639V72.3152C78.9688 71.8958 79.309 71.5547 79.7274 71.5547H97.9301C98.3485 71.5547 98.6888 71.8958 98.6888 72.3152V82.3639C98.6888 82.7833 98.3485 83.1244 97.9301 83.1244ZM80.4861 81.6034H97.1714V73.0757H80.4861V81.6034V81.6034Z" fill="url(#paint17_linear_326_488)"/>

<path d="M66.6513 56.5348H33.7437C33.4871 56.5348 33.2472 56.4062 33.1077 56.1881C32.9683 55.9756 32.946 55.7016 33.0464 55.4668L49.4974 18.0399C49.6201 17.7659 49.8935 17.5869 50.1891 17.5869C50.4904 17.5869 50.7637 17.7659 50.8808 18.0399L67.3318 55.4668C67.4378 55.7016 67.4155 55.9756 67.2705 56.1881C67.1422 56.4006 66.9079 56.5348 66.6513 56.5348ZM34.904 55.0138H65.4854L50.1947 20.2319L34.904 55.0138Z" fill="url(#paint18_linear_326_488)"/>
<path d="M63.2867 71.0682H36.9618C36.5434 71.0682 36.2031 70.727 36.2031 70.3077V55.7742C36.2031 55.3548 36.5434 55.0137 36.9618 55.0137H63.2867C63.7051 55.0137 64.0454 55.3548 64.0454 55.7742V70.3077C64.0454 70.727 63.7051 71.0682 63.2867 71.0682ZM37.7205 69.5471H62.5281V56.5347H37.7205V69.5471Z" fill="url(#paint19_linear_326_488)"/>
<path d="M100.259 77.3369V82.0118C100.259 83.1861 99.3103 84.1423 98.1332 84.1423H79.6293C78.4578 84.1423 77.5039 83.1917 77.5039 82.0118V77.3369H82.3572V79.8813H86.4518V77.3369H91.3051V79.8813H95.3997V77.3369H100.259Z" fill="white"/>
<path d="M98.132 84.2764H79.6282C78.3786 84.2764 77.3633 83.2587 77.3633 82.0061V77.1914H82.4955V79.7357H86.3112V77.1914H91.4434V79.7357H95.2591V77.1914H100.391V82.0061C100.397 83.2587 99.3816 84.2764 98.132 84.2764ZM77.6422 77.4766V82.0117C77.6422 83.1077 78.5348 84.0024 79.6282 84.0024H98.132C99.2254 84.0024 100.118 83.1077 100.118 82.0117V77.4766H95.5436V80.0209H91.1701V77.4766H86.5957V80.0209H82.2222V77.4766H77.6422Z" fill="white"/>
<path d="M98.1302 84.897H79.6263C78.0364 84.897 76.7422 83.5997 76.7422 82.006V77.3367C76.7422 76.9173 77.0825 76.5762 77.5009 76.5762H82.3542C82.7726 76.5762 83.1128 76.9173 83.1128 77.3367V79.1205H85.6901V77.3367C85.6901 76.9173 86.0304 76.5762 86.4488 76.5762H91.3021C91.7205 76.5762 92.0608 76.9173 92.0608 77.3367V79.1205H94.638V77.3367C94.638 76.9173 94.9783 76.5762 95.3967 76.5762H100.25C100.668 76.5762 101.009 76.9173 101.009 77.3367V82.0115C101.014 83.6052 99.72 84.897 98.1302 84.897ZM78.2595 78.0972V82.0115C78.2595 82.7665 78.8732 83.3816 79.6263 83.3816H98.1302C98.8833 83.3816 99.4969 82.7665 99.4969 82.0115V78.0972H96.161V79.881C96.161 80.3004 95.8207 80.6415 95.4023 80.6415H91.3077C90.8893 80.6415 90.549 80.3004 90.549 79.881V78.0972H87.213V79.881C87.213 80.3004 86.8728 80.6415 86.4544 80.6415H82.3597C81.9414 80.6415 81.6011 80.3004 81.6011 79.881V78.0972H78.2595Z" fill="url(#paint20_linear_326_488)"/>
<path d="M65.4519 61.1812V67.4497C65.4519 69.0267 64.1744 70.3072 62.6013 70.3072H37.7881C36.215 70.3072 34.9375 69.0267 34.9375 67.4497V61.1812H41.4476V64.5922H46.9424V61.1812H53.4525V64.5922H58.9474V61.1812H65.4519Z" fill="white"/>
<path d="M62.6057 70.4472H37.787C36.1413 70.4472 34.7969 69.1051 34.7969 67.4499V61.0415H41.5859V64.4526H46.8018V61.0415H53.5908V64.4526H58.8067V61.0415H65.5958V67.4499C65.5902 69.1051 64.2514 70.4472 62.6057 70.4472ZM35.0758 61.3211V67.4499C35.0758 68.9485 36.2919 70.1676 37.787 70.1676H62.6057C64.1007 70.1676 65.3169 68.9485 65.3169 67.4499V61.3211H59.0857V64.7322H53.3119V61.3211H47.0807V64.7322H41.307V61.3211H35.0758Z" fill="white"/>
<path d="M62.6077 71.068H37.789C35.7975 71.068 34.1797 69.4463 34.1797 67.45V61.1814C34.1797 60.762 34.52 60.4209 34.9384 60.4209H41.4485C41.8669 60.4209 42.2071 60.762 42.2071 61.1814V63.8376H46.1846V61.1814C46.1846 60.762 46.5249 60.4209 46.9433 60.4209H53.4534C53.8718 60.4209 54.2121 60.762 54.2121 61.1814V63.8376H58.1896V61.1814C58.1896 60.762 58.5298 60.4209 58.9482 60.4209H65.4583C65.8767 60.4209 66.217 60.762 66.217 61.1814V67.45C66.2114 69.4463 64.5937 71.068 62.6077 71.068ZM35.697 61.9419V67.45C35.697 68.6075 36.6342 69.547 37.789 69.547H62.6077C63.7625 69.547 64.6997 68.6075 64.6997 67.45V61.9419H59.7069V64.5981C59.7069 65.0175 59.3666 65.3586 58.9482 65.3586H53.4534C53.035 65.3586 52.6947 65.0175 52.6947 64.5981V61.9419H47.702V64.5981C47.702 65.0175 47.3617 65.3586 46.9433 65.3586H41.4485C41.0301 65.3586 40.6898 65.0175 40.6898 64.5981V61.9419H35.697Z" fill="url(#paint21_linear_326_488)"/>
<path d="M20.0225 84.1421H3.82812V139.245H20.0225V84.1421Z" fill="white"/>
<path d="M20.025 140H3.82508C3.40669 140 3.06641 139.659 3.06641 139.24V84.1365C3.06641 83.7171 3.40669 83.376 3.82508 83.376H20.025C20.4434 83.376 20.7837 83.7171 20.7837 84.1365V139.24C20.7781 139.659 20.4434 140 20.025 140ZM4.58376 138.479H19.2608V84.897H4.58376V138.479Z" fill="url(#paint22_linear_326_488)"/>
<path d="M15.2275 104.776H9.04089C8.37705 104.776 7.83594 104.234 7.83594 103.569V102.534C7.83594 101.869 8.37705 101.326 9.04089 101.326H15.2275C15.8913 101.326 16.4324 101.869 16.4324 102.534V103.569C16.4324 104.234 15.8913 104.776 15.2275 104.776ZM15.2275 103.557V104.167V103.557ZM15.2163 102.534L9.04089 102.545L9.05205 103.569L15.2219 103.557V102.534H15.2163Z" fill="url(#paint23_linear_326_488)"/>
<path d="M14.5953 102.545H9.68618C9.35147 102.545 9.07812 102.271 9.07812 101.936V96.3883C9.07812 94.694 10.4504 93.3184 12.1407 93.3184C13.831 93.3184 15.2033 94.694 15.2033 96.3883V101.936C15.1977 102.271 14.93 102.545 14.5953 102.545ZM10.2887 101.326H13.9872V96.3883C13.9872 95.365 13.156 94.5374 12.1407 94.5374C11.1254 94.5374 10.2942 95.3706 10.2942 96.3883V101.326H10.2887Z" fill="url(#paint24_linear_326_488)"/>
<path d="M15.2275 127.48H9.04089C8.37705 127.48 7.83594 126.937 7.83594 126.272V125.237C7.83594 124.572 8.37705 124.029 9.04089 124.029H15.2275C15.8913 124.029 16.4324 124.572 16.4324 125.237V126.272C16.4324 126.943 15.8913 127.48 15.2275 127.48ZM15.2275 126.266V126.876V126.266ZM15.2163 125.243L9.04089 125.254L9.05205 126.277L15.2219 126.266V125.243H15.2163Z" fill="url(#paint25_linear_326_488)"/>
<path d="M14.5953 125.254H9.68618C9.35147 125.254 9.07812 124.98 9.07812 124.645V119.097C9.07812 117.403 10.4504 116.027 12.1407 116.027C13.831 116.027 15.2033 117.403 15.2033 119.097V124.645C15.1977 124.98 14.93 125.254 14.5953 125.254ZM10.2887 124.035H13.9872V119.097C13.9872 118.074 13.156 117.246 12.1407 117.246C11.1254 117.246 10.2942 118.08 10.2942 119.097V124.035H10.2887Z" fill="url(#paint26_linear_326_488)"/>
<path d="M23.5153 73.07H0.760591C0.492823 73.07 0.247368 72.9302 0.107906 72.6953C-0.0259781 72.4661 -0.0315566 72.1809 0.096749 71.9404L11.4713 51.1104C11.6052 50.8644 11.8618 50.7134 12.1352 50.7134C12.4085 50.7134 12.6651 50.8644 12.799 51.1104L24.1791 71.9404C24.3074 72.1753 24.3019 72.4605 24.168 72.6953C24.0285 72.9302 23.7831 73.07 23.5153 73.07ZM2.03807 71.549H22.2322L12.1352 53.062L2.03807 71.549Z" fill="url(#paint27_linear_326_488)"/>
<path d="M21.1879 83.1244H2.98524C2.56685 83.1244 2.22656 82.7833 2.22656 82.3639V72.3152C2.22656 71.8958 2.56685 71.5547 2.98524 71.5547H21.1879C21.6063 71.5547 21.9466 71.8958 21.9466 72.3152V82.3639C21.9466 82.7833 21.6063 83.1244 21.1879 83.1244ZM3.74391 81.6034H20.4292V73.0757H3.74391V81.6034Z" fill="url(#paint28_linear_326_488)"/>
<path d="M23.5164 77.3369V82.0118C23.5164 83.1861 22.5681 84.1423 21.391 84.1423H2.88713C1.71564 84.1423 0.761719 83.1917 0.761719 82.0118V77.3369H5.61501V79.8813H9.70963V77.3369H14.5629V79.8813H18.6575V77.3369H23.5164Z" fill="white"/>
<path d="M21.3899 84.2764H2.88597C1.63638 84.2764 0.621094 83.2587 0.621094 82.0061V77.1914H5.75331V79.7357H9.56901V77.1914H14.7012V79.7357H18.5225V77.1914H23.6547V82.0061C23.6547 83.2587 22.6394 84.2764 21.3899 84.2764ZM0.900019 77.4766V82.0117C0.900019 83.1077 1.79258 84.0024 2.88597 84.0024H21.3899C22.4832 84.0024 23.3758 83.1077 23.3758 82.0117V77.4766H18.8014V80.0209H14.4279V77.4766H9.85351V80.0209H5.47439V77.4766H0.900019Z" fill="white"/>

<path d="M21.388 84.897H2.88408C1.29421 84.897 0 83.5997 0 82.006V77.3367C0 76.9173 0.340289 76.5762 0.758676 76.5762H5.61197C6.03036 76.5762 6.37065 76.9173 6.37065 77.3367V79.1205H8.94791V77.3367C8.94791 76.9173 9.2882 76.5762 9.70659 76.5762H14.5599C14.9783 76.5762 15.3186 76.9173 15.3186 77.3367V79.1205H17.8958V77.3367C17.8958 76.9173 18.2361 76.5762 18.6545 76.5762H23.5078C23.9262 76.5762 24.2665 76.9173 24.2665 77.3367V82.0115C24.2721 83.6052 22.9778 84.897 21.388 84.897ZM1.51735 78.0972V82.0115C1.51735 82.7665 2.13099 83.3816 2.88408 83.3816H21.388C22.1411 83.3816 22.7547 82.7665 22.7547 82.0115V78.0972H19.4188V79.881C19.4188 80.3004 19.0785 80.6415 18.6601 80.6415H14.5655C14.1471 80.6415 13.8068 80.3004 13.8068 79.881V78.0972H10.4708V79.881C10.4708 80.3004 10.1306 80.6415 9.71217 80.6415H5.61755C5.19916 80.6415 4.85887 80.3004 4.85887 79.881V78.0972H1.51735Z" fill="url(#paint29_linear_326_488)"/>

<path d="M55.028 87.3348H45.3716C44.44 87.3348 43.6758 86.5743 43.6758 85.6349V84.3152C43.6758 83.3813 44.4345 82.6152 45.3716 82.6152H55.028C55.9596 82.6152 56.7239 83.3757 56.7239 84.3152V85.6349C56.7183 86.5743 55.9596 87.3348 55.028 87.3348ZM45.3716 83.8399C45.1095 83.8399 44.8919 84.058 44.8919 84.3208V85.6405C44.8919 85.9033 45.1095 86.1214 45.3716 86.1214H55.028C55.2902 86.1214 55.5078 85.9033 55.5078 85.6405V84.3208C55.5078 84.058 55.2902 83.8399 55.028 83.8399H45.3716Z" fill="url(#paint30_linear_326_488)"/>
<path d="M55.1199 83.84H45.3463C45.0116 83.84 44.7383 83.566 44.7383 83.2305V78.7122C44.7383 75.6757 47.204 73.2041 50.2331 73.2041C53.2622 73.2041 55.7279 75.6757 55.7279 78.7122V83.2305C55.7279 83.5716 55.4546 83.84 55.1199 83.84ZM45.9544 82.6265H54.5174V78.7178C54.5174 76.3524 52.5984 74.4287 50.2387 74.4287C47.879 74.4287 45.96 76.3524 45.96 78.7178V82.6265H45.9544Z" fill="url(#paint31_linear_326_488)"/>
<path d="M62.6362 14.2986H50.1962C49.7778 14.2986 49.4375 13.9575 49.4375 13.5381V5.22291C49.4375 4.80351 49.7778 4.4624 50.1962 4.4624H60.3825C62.0393 4.4624 63.3893 5.81565 63.3893 7.47646V13.5325C63.3949 13.9575 63.0546 14.2986 62.6362 14.2986ZM50.9549 12.7776H61.8776V7.48205C61.8776 6.66004 61.2081 5.989 60.3881 5.989H50.9604V12.7776H50.9549Z" fill="url(#paint32_linear_326_488)"/>
<path d="M58.5907 8.39363C58.1723 8.39363 57.832 8.05252 57.832 7.63312C57.832 6.0506 59.0091 4.70294 60.5767 4.49604C60.9895 4.44012 61.3744 4.73649 61.4302 5.15029C61.4859 5.5641 61.1903 5.94994 60.7775 6.00586C59.963 6.11211 59.355 6.8111 59.355 7.63871C59.3494 8.05252 59.0091 8.39363 58.5907 8.39363Z" fill="url(#paint33_linear_326_488)"/>
<path d="M66.3774 14.1922L71.0299 18.347H61.3177C59.8115 18.347 58.5898 17.1223 58.5898 15.6125V7.63281C58.5898 8.29825 58.8576 8.89659 59.2927 9.32717C59.7279 9.76334 60.3248 10.0318 60.9886 10.0318H71.0299L66.3774 14.1922Z" fill="white"/>
<path d="M71.0308 19.1077H61.3186C59.394 19.1077 57.832 17.542 57.832 15.6128V7.63306C57.832 7.21367 58.1723 6.87256 58.5907 6.87256C59.0091 6.87256 59.3494 7.21367 59.3494 7.63306C59.3494 8.06924 59.5223 8.48304 59.8291 8.7906C60.1415 9.10375 60.5488 9.2771 60.9895 9.2771H71.0308C71.3432 9.2771 71.6277 9.47281 71.7392 9.76919C71.8508 10.0656 71.7727 10.3955 71.5328 10.608L67.5163 14.198L71.5328 17.788C71.7671 18.0005 71.8508 18.3305 71.7392 18.6268C71.6277 18.912 71.3432 19.1077 71.0308 19.1077ZM59.3494 10.334V15.6128C59.3494 16.7032 60.2308 17.5867 61.3186 17.5867H69.0392L65.8707 14.7572C65.7089 14.6118 65.614 14.4049 65.614 14.1868C65.614 13.9687 65.7089 13.7618 65.8707 13.6164L69.0392 10.7869H60.9895C60.4037 10.7925 59.8403 10.6359 59.3494 10.334Z" fill="url(#paint34_linear_326_488)"/>
<path d="M50.1962 19.3144C49.7778 19.3144 49.4375 18.9733 49.4375 18.5539V1.77808C49.4375 1.35869 49.7778 1.01758 50.1962 1.01758C50.6146 1.01758 50.9549 1.35869 50.9549 1.77808V18.5539C50.9549 18.9733 50.6146 19.3144 50.1962 19.3144Z" fill="url(#paint35_linear_326_488)"/>
<path d="M50.1944 0C49.5585 0 48.9728 0.341109 48.6604 0.88912C48.3424 1.43713 48.3424 2.11935 48.6604 2.66736C48.9783 3.21537 49.5641 3.55648 50.1944 3.55648C50.8304 3.55648 51.4161 3.21537 51.7285 2.66736C52.0465 2.11935 52.0465 1.43713 51.7285 0.88912C51.4161 0.341109 50.8304 0 50.1944 0Z" fill="url(#paint36_linear_326_488)"/>
<path d="M97.5343 49.4046H88.8542C88.5194 49.4046 88.2461 49.1306 88.2461 48.7951V42.9962C88.2461 42.6607 88.5194 42.3867 88.8542 42.3867H95.9612C97.1605 42.3867 98.1368 43.3653 98.1368 44.5676V48.7951C98.1424 49.1306 97.869 49.4046 97.5343 49.4046ZM89.4622 48.1856H96.9262V44.5676C96.9262 44.0363 96.4967 43.6002 95.9612 43.6002H89.4622V48.1856Z" fill="url(#paint37_linear_326_488)"/>
<path d="M94.7135 45.2835C94.3788 45.2835 94.1055 45.0095 94.1055 44.674C94.1055 43.5333 94.959 42.5547 96.0858 42.4093C96.415 42.3645 96.7218 42.5994 96.7664 42.9349C96.811 43.2704 96.5767 43.5724 96.242 43.6171C95.7121 43.6842 95.316 44.1428 95.316 44.6796C95.3216 45.0095 95.0482 45.2835 94.7135 45.2835Z" fill="url(#paint38_linear_326_488)"/>
<path d="M100.144 49.248L103.391 52.1503H96.6132C95.5644 52.1503 94.7109 51.2947 94.7109 50.2434V44.6738C94.7109 45.138 94.9006 45.5574 95.2018 45.8593C95.5031 46.1669 95.9215 46.3514 96.3845 46.3514H103.391L100.144 49.248Z" fill="white"/>
<path d="M103.756 52.2901H96.6159C95.4891 52.2901 94.5742 51.373 94.5742 50.2434V44.6738H94.8531C94.8531 45.082 95.0149 45.4679 95.305 45.7587C95.5951 46.0494 95.98 46.2116 96.3872 46.2116H103.756L100.354 49.2536L103.756 52.2901ZM94.8531 45.6412V50.2434C94.8531 51.2164 95.6453 52.0105 96.6159 52.0105H103.026L99.9352 49.248L103.026 46.4856H96.3872C95.9019 46.4856 95.4445 46.2955 95.1042 45.9544C95.0093 45.8593 94.9257 45.7531 94.8531 45.6412Z" fill="url(#paint39_linear_326_488)"/>
<path d="M103.394 52.7599H96.6158C95.2323 52.7599 94.1055 51.6304 94.1055 50.2436V44.674C94.1055 44.3385 94.3788 44.0645 94.7135 44.0645C95.0482 44.0645 95.3216 44.3385 95.3216 44.674C95.3216 44.9592 95.4332 45.2276 95.634 45.4289C95.8348 45.6358 96.1026 45.742 96.3871 45.742H103.394C103.645 45.742 103.873 45.8986 103.963 46.1335C104.052 46.3683 103.985 46.6367 103.801 46.8045L101.062 49.2538L103.801 51.7031C103.991 51.8708 104.052 52.1392 103.963 52.3741C103.868 52.6034 103.645 52.7599 103.394 52.7599ZM95.3216 46.6927V50.2436C95.3216 50.9593 95.9017 51.5409 96.6158 51.5409H101.798L99.7398 49.7011C99.6115 49.5837 99.5389 49.4215 99.5389 49.2482C99.5389 49.0748 99.6115 48.9071 99.7398 48.7952L101.798 46.9555H96.3871C96.0077 46.9611 95.6451 46.866 95.3216 46.6927Z" fill="url(#paint40_linear_326_488)"/>
<path d="M88.8542 52.9054C88.5194 52.9054 88.2461 52.6314 88.2461 52.2959V40.5919C88.2461 40.2564 88.5194 39.9824 88.8542 39.9824C89.1889 39.9824 89.4622 40.2564 89.4622 40.5919V52.2959C89.4622 52.6314 89.1889 52.9054 88.8542 52.9054Z" fill="url(#paint41_linear_326_488)"/>
<path d="M88.8556 39.3506C88.4149 39.3506 88.0077 39.5854 87.7845 39.9713C87.5614 40.3571 87.5614 40.8269 87.7845 41.2127C88.0077 41.5985 88.4149 41.8334 88.8556 41.8334C89.2963 41.8334 89.7035 41.5985 89.9267 41.2127C90.1498 40.8269 90.1498 40.3571 89.9267 39.9713C89.7091 39.5854 89.2963 39.3506 88.8556 39.3506Z" fill="url(#paint42_linear_326_488)"/>
<path d="M20.7804 49.5057H12.1002C11.7655 49.5057 11.4922 49.2317 11.4922 48.8962V43.0973C11.4922 42.7618 11.7655 42.4878 12.1002 42.4878H19.2073C20.4066 42.4878 21.3829 43.4664 21.3829 44.6687V48.8962C21.3829 49.2317 21.1151 49.5057 20.7804 49.5057ZM12.7083 48.2866H20.1723V44.6687C20.1723 44.1374 19.7428 43.7012 19.2073 43.7012H12.7083V48.2866Z" fill="url(#paint43_linear_326_488)"/>
<path d="M17.9557 45.3841C17.621 45.3841 17.3477 45.1101 17.3477 44.7746C17.3477 43.6338 18.2012 42.6552 19.328 42.5099C19.6572 42.4651 19.964 42.7 20.0086 43.0355C20.0532 43.371 19.8189 43.673 19.4842 43.7177C18.9543 43.7848 18.5582 44.2434 18.5582 44.7802C18.5582 45.1101 18.2904 45.3841 17.9557 45.3841Z" fill="url(#paint44_linear_326_488)"/>
<path d="M23.3849 49.3545L26.6316 52.2567H19.8593C18.8105 52.2567 17.957 51.4011 17.957 50.3499V44.7803C17.957 45.2444 18.1467 45.6638 18.4479 45.9658C18.7492 46.2733 19.1676 46.4579 19.6306 46.4579H26.6372L23.3849 49.3545Z" fill="white"/>
<path d="M26.6303 52.8605H19.858C18.4745 52.8605 17.3477 51.7309 17.3477 50.3441V44.7746C17.3477 44.439 17.621 44.165 17.9557 44.165C18.2904 44.165 18.5638 44.439 18.5638 44.7746C18.5638 45.0598 18.6753 45.3282 18.8762 45.5295C19.077 45.7364 19.3448 45.8426 19.6293 45.8426H26.6359C26.8869 45.8426 27.1156 45.9992 27.2049 46.2341C27.2941 46.4689 27.2272 46.7373 27.0431 46.9051L24.304 49.3544L27.0431 51.798C27.2328 51.9658 27.2941 52.2342 27.2049 52.4691C27.11 52.7039 26.8869 52.8605 26.6303 52.8605ZM18.5582 46.7988V50.3497C18.5582 51.0655 19.1384 51.6471 19.8524 51.6471H25.0348L22.9819 49.8073C22.8536 49.6899 22.7811 49.5277 22.7811 49.3544C22.7811 49.181 22.8536 49.0133 22.9819 48.9014L25.0404 47.0617H19.6293C19.2499 47.0617 18.8873 46.9722 18.5582 46.7988Z" fill="url(#paint45_linear_326_488)"/>
<path d="M12.1002 53.006C11.7655 53.006 11.4922 52.732 11.4922 52.3965V40.6925C11.4922 40.357 11.7655 40.083 12.1002 40.083C12.435 40.083 12.7083 40.357 12.7083 40.6925V52.3965C12.7083 52.732 12.435 53.006 12.1002 53.006Z" fill="url(#paint46_linear_326_488)"/>
<path d="M12.1017 39.4512C11.661 39.4512 11.2538 39.686 11.0306 40.0719C10.8075 40.4577 10.8075 40.9274 11.0306 41.3133C11.2538 41.6991 11.661 41.934 12.1017 41.934C12.5424 41.934 12.9496 41.6991 13.1728 41.3133C13.3959 40.9274 13.3959 40.4577 13.1728 40.0719C12.9496 39.6916 12.5424 39.4512 12.1017 39.4512Z" fill="url(#paint47_linear_326_488)"/>
<defs>
<linearGradient id="paint0_linear_326_488" x1="42.0296" y1="71.8465" x2="57.1995" y2="77.8254" gradientUnits="userSpaceOnUse">
<stop stop-color="#2C5E5B"/>
<stop offset="1" stop-color="#415C7A"/>
</linearGradient>
<linearGradient id="paint1_linear_326_488" x1="40.237" y1="110.174" x2="58.7879" y2="117.432" gradientUnits="userSpaceOnUse">
<stop stop-color="#2C5E5B"/>
<stop offset="1" stop-color="#415C7A"/>
</linearGradient>
<linearGradient id="paint2_linear_326_488" x1="39.8702" y1="109.733" x2="59.0991" y2="117.258" gradientUnits="userSpaceOnUse">
<stop stop-color="#2C5E5B"/>
<stop offset="1" stop-color="#415C7A"/>
</linearGradient>
<linearGradient id="paint3_linear_326_488" x1="42.6469" y1="113.774" x2="57.2586" y2="118.597" gradientUnits="userSpaceOnUse">
<stop stop-color="#2C5E5B"/>
<stop offset="1" stop-color="#415C7A"/>
</linearGradient>
<linearGradient id="paint4_linear_326_488" x1="42.6469" y1="113.774" x2="57.2586" y2="118.597" gradientUnits="userSpaceOnUse">
<stop stop-color="#2C5E5B"/>
<stop offset="1" stop-color="#415C7A"/>
</linearGradient>
<linearGradient id="paint5_linear_326_488" x1="40.6026" y1="108.481" x2="42.9609" y2="109.16" gradientUnits="userSpaceOnUse">
<stop stop-color="#2C5E5B"/>
<stop offset="1" stop-color="#415C7A"/>
</linearGradient>
<linearGradient id="paint6_linear_326_488" x1="57.4151" y1="108.482" x2="59.7733" y2="109.162" gradientUnits="userSpaceOnUse">
<stop stop-color="#2C5E5B"/>
<stop offset="1" stop-color="#415C7A"/>
</linearGradient>
<linearGradient id="paint7_linear_326_488" x1="49.8357" y1="113.886" x2="50.6047" y2="113.898" gradientUnits="userSpaceOnUse">
<stop stop-color="#2C5E5B"/>
<stop offset="1" stop-color="#415C7A"/>
</linearGradient>
<linearGradient id="paint8_linear_326_488" x1="52.7566" y1="128.335" x2="53.9773" y2="128.553" gradientUnits="userSpaceOnUse">
<stop stop-color="#2C5E5B"/>
<stop offset="1" stop-color="#415C7A"/>
</linearGradient>
<linearGradient id="paint9_linear_326_488" x1="46.4597" y1="128.335" x2="47.6804" y2="128.553" gradientUnits="userSpaceOnUse">
<stop stop-color="#2C5E5B"/>
<stop offset="1" stop-color="#415C7A"/>
</linearGradient>
<linearGradient id="paint10_linear_326_488" x1="31.8532" y1="95.8744" x2="63.9514" y2="111.184" gradientUnits="userSpaceOnUse">
<stop stop-color="#2C5E5B"/>
<stop offset="1" stop-color="#415C7A"/>
</linearGradient>
<linearGradient id="paint11_linear_326_488" x1="83.4495" y1="91.5749" x2="94.4842" y2="92.9386" gradientUnits="userSpaceOnUse">
<stop stop-color="#2C5E5B"/>
<stop offset="1" stop-color="#415C7A"/>
</linearGradient>
<linearGradient id="paint12_linear_326_488" x1="86.3473" y1="101.826" x2="89.1089" y2="104.544" gradientUnits="userSpaceOnUse">
<stop stop-color="#2C5E5B"/>
<stop offset="1" stop-color="#415C7A"/>
</linearGradient>
<linearGradient id="paint13_linear_326_488" x1="87.0703" y1="94.6544" x2="90.6953" y2="95.6051" gradientUnits="userSpaceOnUse">
<stop stop-color="#2C5E5B"/>
<stop offset="1" stop-color="#415C7A"/>
</linearGradient>
<linearGradient id="paint14_linear_326_488" x1="86.3473" y1="124.529" x2="89.1089" y2="127.247" gradientUnits="userSpaceOnUse">
<stop stop-color="#2C5E5B"/>
<stop offset="1" stop-color="#415C7A"/>
</linearGradient>
<linearGradient id="paint15_linear_326_488" x1="87.0703" y1="117.363" x2="90.6953" y2="118.314" gradientUnits="userSpaceOnUse">
<stop stop-color="#2C5E5B"/>
<stop offset="1" stop-color="#415C7A"/>
</linearGradient>
<linearGradient id="paint16_linear_326_488" x1="81.7294" y1="53.9505" x2="94.695" y2="59.5109" gradientUnits="userSpaceOnUse">
<stop stop-color="#2C5E5B"/>
<stop offset="1" stop-color="#415C7A"/>
</linearGradient>
<linearGradient id="paint17_linear_326_488" x1="83.0181" y1="73.2299" x2="91.6001" y2="79.0089" gradientUnits="userSpaceOnUse">
<stop stop-color="#2C5E5B"/>
<stop offset="1" stop-color="#415C7A"/>
</linearGradient>
<linearGradient id="paint18_linear_326_488" x1="40.0509" y1="23.2264" x2="59.4541" y2="29.9997" gradientUnits="userSpaceOnUse">
<stop stop-color="#2C5E5B"/>
<stop offset="1" stop-color="#415C7A"/>
</linearGradient>
<linearGradient id="paint19_linear_326_488" x1="41.9203" y1="57.3383" x2="53.9052" y2="65.5498" gradientUnits="userSpaceOnUse">
<stop stop-color="#2C5E5B"/>
<stop offset="1" stop-color="#415C7A"/>
</linearGradient>
<linearGradient id="paint20_linear_326_488" x1="81.7251" y1="77.781" x2="88.3198" y2="85.3793" gradientUnits="userSpaceOnUse">
<stop stop-color="#2C5E5B"/>
<stop offset="1" stop-color="#415C7A"/>
</linearGradient>
<linearGradient id="paint21_linear_326_488" x1="40.7583" y1="61.9626" x2="49.1555" y2="71.9452" gradientUnits="userSpaceOnUse">
<stop stop-color="#2C5E5B"/>
<stop offset="1" stop-color="#415C7A"/>
</linearGradient>
<linearGradient id="paint22_linear_326_488" x1="6.70452" y1="91.5749" x2="17.7426" y2="92.9394" gradientUnits="userSpaceOnUse">
<stop stop-color="#2C5E5B"/>
<stop offset="1" stop-color="#415C7A"/>
</linearGradient>
<linearGradient id="paint23_linear_326_488" x1="9.60116" y1="101.826" x2="12.3628" y2="104.544" gradientUnits="userSpaceOnUse">
<stop stop-color="#2C5E5B"/>
<stop offset="1" stop-color="#415C7A"/>
</linearGradient>
<linearGradient id="paint24_linear_326_488" x1="10.3359" y1="94.6544" x2="13.9609" y2="95.6051" gradientUnits="userSpaceOnUse">
<stop stop-color="#2C5E5B"/>
<stop offset="1" stop-color="#415C7A"/>
</linearGradient>
<linearGradient id="paint25_linear_326_488" x1="9.60116" y1="124.529" x2="12.3628" y2="127.247" gradientUnits="userSpaceOnUse">
<stop stop-color="#2C5E5B"/>
<stop offset="1" stop-color="#415C7A"/>
</linearGradient>
<linearGradient id="paint26_linear_326_488" x1="10.3359" y1="117.363" x2="13.9609" y2="118.314" gradientUnits="userSpaceOnUse">
<stop stop-color="#2C5E5B"/>
<stop offset="1" stop-color="#415C7A"/>
</linearGradient>
<linearGradient id="paint27_linear_326_488" x1="4.98717" y1="53.9505" x2="17.9528" y2="59.5109" gradientUnits="userSpaceOnUse">
<stop stop-color="#2C5E5B"/>
<stop offset="1" stop-color="#415C7A"/>
</linearGradient>
<linearGradient id="paint28_linear_326_488" x1="6.27591" y1="73.2299" x2="14.8579" y2="79.0089" gradientUnits="userSpaceOnUse">
<stop stop-color="#2C5E5B"/>
<stop offset="1" stop-color="#415C7A"/>
</linearGradient>
<linearGradient id="paint29_linear_326_488" x1="4.98294" y1="77.781" x2="11.5776" y2="85.3793" gradientUnits="userSpaceOnUse">
<stop stop-color="#2C5E5B"/>
<stop offset="1" stop-color="#415C7A"/>
</linearGradient>
<linearGradient id="paint30_linear_326_488" x1="46.3551" y1="83.2986" x2="50.1186" y2="87.4093" gradientUnits="userSpaceOnUse">
<stop stop-color="#2C5E5B"/>
<stop offset="1" stop-color="#415C7A"/>
</linearGradient>
<linearGradient id="paint31_linear_326_488" x1="46.9949" y1="74.7441" x2="52.9533" y2="77.1765" gradientUnits="userSpaceOnUse">
<stop stop-color="#2C5E5B"/>
<stop offset="1" stop-color="#415C7A"/>
</linearGradient>
<linearGradient id="paint32_linear_326_488" x1="52.3024" y1="5.88665" x2="59.0184" y2="9.65018" gradientUnits="userSpaceOnUse">
<stop stop-color="#2C5E5B"/>
<stop offset="1" stop-color="#415C7A"/>
</linearGradient>
<linearGradient id="paint33_linear_326_488" x1="58.5723" y1="5.0546" x2="60.5847" y2="5.78868" gradientUnits="userSpaceOnUse">
<stop stop-color="#2C5E5B"/>
<stop offset="1" stop-color="#415C7A"/>
</linearGradient>
<linearGradient id="paint34_linear_326_488" x1="60.698" y1="8.64417" x2="68.0359" y2="11.9512" gradientUnits="userSpaceOnUse">
<stop stop-color="#2C5E5B"/>
<stop offset="1" stop-color="#415C7A"/>
</linearGradient>
<linearGradient id="paint35_linear_326_488" x1="49.7491" y1="3.6669" x2="50.7078" y2="3.69831" gradientUnits="userSpaceOnUse">
<stop stop-color="#2C5E5B"/>
<stop offset="1" stop-color="#415C7A"/>
</linearGradient>
<linearGradient id="paint36_linear_326_488" x1="49.1498" y1="0.514965" x2="51.0912" y2="1.27949" gradientUnits="userSpaceOnUse">
<stop stop-color="#2C5E5B"/>
<stop offset="1" stop-color="#415C7A"/>
</linearGradient>
<linearGradient id="paint37_linear_326_488" x1="90.2771" y1="43.4029" x2="95.0527" y2="46.062" gradientUnits="userSpaceOnUse">
<stop stop-color="#2C5E5B"/>
<stop offset="1" stop-color="#415C7A"/>
</linearGradient>
<linearGradient id="paint38_linear_326_488" x1="94.653" y1="42.8208" x2="96.1405" y2="43.3649" gradientUnits="userSpaceOnUse">
<stop stop-color="#2C5E5B"/>
<stop offset="1" stop-color="#415C7A"/>
</linearGradient>
<linearGradient id="paint39_linear_326_488" x1="96.4597" y1="45.7766" x2="101.194" y2="48.0315" gradientUnits="userSpaceOnUse">
<stop stop-color="#2C5E5B"/>
<stop offset="1" stop-color="#415C7A"/>
</linearGradient>
<linearGradient id="paint40_linear_326_488" x1="96.1378" y1="45.3235" x2="101.345" y2="47.6652" gradientUnits="userSpaceOnUse">
<stop stop-color="#2C5E5B"/>
<stop offset="1" stop-color="#415C7A"/>
</linearGradient>
<linearGradient id="paint41_linear_326_488" x1="88.4958" y1="41.8536" x2="89.264" y2="41.8822" gradientUnits="userSpaceOnUse">
<stop stop-color="#2C5E5B"/>
<stop offset="1" stop-color="#415C7A"/>
</linearGradient>
<linearGradient id="paint42_linear_326_488" x1="88.1258" y1="39.7101" x2="89.4818" y2="40.2445" gradientUnits="userSpaceOnUse">
<stop stop-color="#2C5E5B"/>
<stop offset="1" stop-color="#415C7A"/>
</linearGradient>
<linearGradient id="paint43_linear_326_488" x1="13.5232" y1="43.504" x2="18.2987" y2="46.163" gradientUnits="userSpaceOnUse">
<stop stop-color="#2C5E5B"/>
<stop offset="1" stop-color="#415C7A"/>
</linearGradient>
<linearGradient id="paint44_linear_326_488" x1="17.8952" y1="42.9214" x2="19.3827" y2="43.4655" gradientUnits="userSpaceOnUse">
<stop stop-color="#2C5E5B"/>
<stop offset="1" stop-color="#415C7A"/>
</linearGradient>
<linearGradient id="paint45_linear_326_488" x1="19.38" y1="45.4241" x2="24.5874" y2="47.7658" gradientUnits="userSpaceOnUse">
<stop stop-color="#2C5E5B"/>
<stop offset="1" stop-color="#415C7A"/>
</linearGradient>
<linearGradient id="paint46_linear_326_488" x1="11.7419" y1="41.9542" x2="12.5101" y2="41.9828" gradientUnits="userSpaceOnUse">
<stop stop-color="#2C5E5B"/>
<stop offset="1" stop-color="#415C7A"/>
</linearGradient>
<linearGradient id="paint47_linear_326_488" x1="11.3719" y1="39.8107" x2="12.7279" y2="40.3451" gradientUnits="userSpaceOnUse">
<stop stop-color="#2C5E5B"/>
<stop offset="1" stop-color="#415C7A"/>
</linearGradient>
</defs>
</svg>
