<svg width="53" height="94" viewBox="0 0 53 94" fill="none" xmlns="http://www.w3.org/2000/svg">
<path d="M2.1345 49.9594L50.2023 49.9594L50.3961 49.4971C50.8089 48.1601 52.8539 41.581 52.2035 39.4443L52.0097 39.0007H50.959C51.0215 38.1572 51.0215 36.7702 50.7213 35.3269C50.221 32.9652 48.7826 29.6164 44.7551 27.3859L44.5487 27.2422L26.1434 27.2609L7.75679 27.2609L7.55041 27.3734C3.52288 29.6101 2.09073 32.9965 1.60292 35.3519C1.30273 36.7827 1.30898 38.1635 1.37152 39.0069H0.320861L0.126989 39.5317C-0.523421 41.6685 1.51536 48.2163 1.93438 49.5533L2.1345 49.9594ZM8.22584 29.0791L26.1434 29.0603L44.0797 29.0416C49.433 32.1405 49.3205 37.32 49.1328 39.0069L3.19767 39.0069C2.99755 37.32 2.87247 32.1718 8.22584 29.0791ZM3.50412 40.6876L48.8389 40.6876H48.8264H50.5462C50.5337 42.3745 49.6644 45.7421 48.8702 48.2725L3.46659 48.2725C2.66609 45.7484 1.76552 42.3433 1.75301 40.6876H3.50412Z" fill="url(#paint0_linear_1224_1694)"/>
<path d="M10.5877 26.0927L26.1475 26.3676C26.1538 26.3676 26.16 26.3676 26.1663 26.3676C26.1726 26.3676 26.1788 26.3676 26.1851 26.3676L41.7323 26.0927C42.3765 26.0802 42.9081 25.6866 43.0644 25.068C43.2208 24.4432 42.9519 23.8372 42.3765 23.5123C42.1639 23.3936 41.9888 23.2999 41.8637 23.2374C40.9506 22.7626 40.1251 22.3127 39.3371 21.8441C37.6047 20.8132 36.1163 19.7698 34.7842 18.6452C32.6954 16.8771 30.2939 14.0968 30.7192 10.9041C30.7442 10.6979 30.7754 10.4855 30.8067 10.2793C30.888 9.73575 30.9693 9.17344 31.0006 8.58614C31.0631 7.3678 31.0881 5.54342 30.5753 3.81276C30.0062 1.84468 28.8242 0.538879 27.267 0.126519C26.8355 0.0140577 26.4727 -0.0234295 26.135 0.0140577C25.3033 0.101528 24.5528 0.220237 23.7648 0.795042C22.2013 1.9384 21.4008 3.98146 21.3258 7.04291C21.307 7.86763 21.3383 8.74233 21.4321 9.70451C21.4633 10.0231 21.5009 10.3293 21.5384 10.6229C21.651 11.5101 21.751 12.2724 21.5884 13.0784C21.0381 15.8087 18.4802 18.0267 16.3101 19.6511C14.5277 20.9882 12.4577 22.244 9.98111 23.5061C9.39324 23.806 9.0993 24.3933 9.24314 25.0305C9.39324 25.6741 9.93108 26.0739 10.5877 26.0927ZM17.392 21.0944C19.8186 19.2762 22.6891 16.7646 23.3583 13.4345C23.5772 12.3411 23.4521 11.3477 23.327 10.3918C23.2895 10.1106 23.252 9.81697 23.2269 9.52957C23.1394 8.63612 23.1081 7.83639 23.1269 7.0804C23.1894 4.61249 23.746 3.03178 24.828 2.24455C25.2595 1.93215 25.6785 1.86343 26.3226 1.80095C26.4477 1.78845 26.6041 1.81344 26.8042 1.86343C28.0487 2.18832 28.6178 3.53786 28.8492 4.31259C29.2808 5.78084 29.2557 7.39904 29.1995 8.48617C29.1744 8.986 29.0994 9.48583 29.0243 10.0107C28.9931 10.2293 28.9618 10.448 28.9305 10.6604C28.399 14.6591 31.1882 17.9517 33.621 20.0135C35.0281 21.2068 36.5979 22.3127 38.4178 23.3936C38.9869 23.731 39.5747 24.0621 40.2001 24.3995L26.1663 24.7181L12.1512 24.3995C14.14 23.3311 15.8661 22.2377 17.392 21.0944Z" fill="url(#paint1_linear_1224_1694)"/>
<path d="M43.0865 83.0354C44.3811 80.1739 44.5687 77.3561 44.5749 77.2374L43.2804 77.1499C43.2804 77.1749 43.1553 79.8865 41.942 82.5418C40.3785 85.9781 38.1209 87.7213 34.75 87.7213V88.9834C38.1271 88.9896 41.3229 86.9278 43.0865 83.0354Z" fill="url(#paint2_linear_1224_1694)"/>
<path d="M4.44326 86.1723C5.43138 87.8592 6.25065 89.4962 7.27629 90.7208C8.9586 92.7326 13.8492 93.6948 21.8104 93.6948C23.7492 93.6948 25.3564 93.5948 26.1507 93.5573C26.9387 93.5948 28.5459 93.6448 30.4847 93.6448V93.6385C38.4584 93.6385 43.3553 92.6139 45.0376 90.5958C48.4585 86.4972 52.7674 78.1438 50.6411 71.9209C47.389 62.4117 49.1902 55.9764 50.1158 53.6522C50.3534 53.0649 50.2784 52.2839 49.9219 51.7528C49.5654 51.2217 48.965 50.7969 48.3271 50.7969L4.00548 50.7969C3.36758 50.7969 2.77346 51.228 2.41073 51.7528C2.05425 52.2776 1.97921 53.0024 2.21686 53.5897C3.14244 55.9139 5.09992 62.3742 1.84787 71.8834C0.390706 76.1507 1.75406 81.4614 4.24313 85.6662C4.29316 85.7475 4.33069 85.8349 4.36196 85.9224L4.44326 86.1723ZM3.90542 52.715C3.93043 52.6775 3.9617 52.49 4.00548 52.49L48.3271 52.49C48.3709 52.49 48.4022 52.6775 48.4272 52.715C48.4585 52.765 48.446 52.8962 48.4397 52.9087C47.8643 54.3582 47.2139 56.6386 47.0201 59.5814C30.5847 54.6081 11.2788 58.2193 5.31255 59.5564C5.11243 56.6324 4.46827 54.3394 3.89291 52.8962C3.88666 52.8774 3.8679 52.765 3.90542 52.715ZM45.5316 60.4936C27.4015 64.486 12.2294 62.1243 5.91293 60.731C12.0105 59.3939 29.9406 56.1763 45.5316 60.4936ZM3.93669 71.0212H11.135V69.3343H4.2744C4.63713 68.4908 4.89979 66.8039 5.0749 65.9667H13.6678V64.2798H5.23125C5.31881 63.4363 5.35633 62.6428 5.36884 61.8681C9.07117 62.6991 16.0631 63.9486 25.05 63.9486C31.4915 63.9486 38.9587 63.3114 46.9513 61.4495C46.9575 64.511 47.4641 68.2097 48.9275 72.502C50.8037 77.9814 46.6824 85.8037 43.6429 89.44C42.3796 90.9582 37.5766 91.8266 30.4721 91.8266C28.5709 91.8266 26.995 91.7642 26.2257 91.7267C26.1945 91.7267 26.1632 91.7267 26.1319 91.7267C26.1006 91.7267 26.0694 91.7267 26.0381 91.7267C25.2689 91.7642 23.6991 91.8329 21.7979 91.8329C14.706 91.8329 9.91545 91.0894 8.6459 89.5712C7.87041 88.6402 7.02613 87.0345 6.22563 86.1911H11.135V84.5041H5.5502C4.89979 83.6607 4.31192 81.9737 3.85539 81.1365H9.44641V79.4496H3.48015C3.14244 78.6061 2.94231 76.9192 2.9298 76.082H8.60213V74.3951H2.99234C3.06114 73.5516 3.18622 73.208 3.39885 72.5957C3.59272 72.0209 3.76783 71.0212 3.93669 71.0212Z" fill="url(#paint3_linear_1224_1694)"/>
<defs>
<linearGradient id="paint0_linear_1224_1694" x1="10.7456" y1="30.5316" x2="28.8506" y2="47.0086" gradientUnits="userSpaceOnUse">
<stop stop-color="#2C5E5B"/>
<stop offset="1" stop-color="#415C7A"/>
</linearGradient>
<linearGradient id="paint1_linear_1224_1694" x1="16.1684" y1="3.81793" x2="33.2139" y2="12.4763" gradientUnits="userSpaceOnUse">
<stop stop-color="#2C5E5B"/>
<stop offset="1" stop-color="#415C7A"/>
</linearGradient>
<linearGradient id="paint2_linear_1224_1694" x1="36.7675" y1="78.8633" x2="42.3783" y2="80.7038" gradientUnits="userSpaceOnUse">
<stop stop-color="#2C5E5B"/>
<stop offset="1" stop-color="#415C7A"/>
</linearGradient>
<linearGradient id="paint3_linear_1224_1694" x1="11.5082" y1="57.0083" x2="37.587" y2="69.0069" gradientUnits="userSpaceOnUse">
<stop stop-color="#2C5E5B"/>
<stop offset="1" stop-color="#415C7A"/>
</linearGradient>
</defs>
</svg>
