<svg width="123" height="105" viewBox="0 0 123 105" fill="none" xmlns="http://www.w3.org/2000/svg">
<path d="M90.3024 8.39013C92.0114 7.71972 92.3721 10.0075 92.3721 10.0075C92.3721 10.0075 94.5573 9.23974 94.7783 11.062C94.9993 12.8844 90.3643 13.371 90.3643 13.371C90.3643 13.371 88.5935 9.06054 90.3024 8.39013Z" stroke="url(#paint0_linear_333_889)" stroke-width="1.7" stroke-miterlimit="10"/>
<path d="M80.0078 4.32164C80.2461 2.17621 82.7651 3.06037 82.7651 3.06037C82.7651 3.06037 83.1606 0.366044 85.1317 1.13955C87.1022 1.91305 85.1026 7 85.1026 7C85.1026 7 79.7694 6.46763 80.0078 4.32164Z" stroke="url(#paint1_linear_333_889)" stroke-width="1.7" stroke-miterlimit="10"/>
<path d="M81.1711 16.811C73.1072 6.57214 62.6858 19.2922 62.6858 19.2922C62.6858 19.2922 52.0536 6.74733 44.1604 17.1195C36.2683 27.4918 62.9176 47.106 62.9176 47.106C62.9176 47.106 89.2361 27.0498 81.1711 16.811Z" stroke="url(#paint2_linear_333_889)" stroke-width="1.7" stroke-miterlimit="10"/>
<path d="M63.2341 93.1929C63.2341 93.1929 62.7555 85.1748 61.6259 77.4104C60.3824 68.8594 53.3537 63.9798 42.832 63.6363C38.6699 63.5006 32.4593 59.8681 31.0257 56.0895C29.4186 51.8517 28.0469 45.8564 25.3944 45.6251C22.5359 45.3766 23.4828 55.5444 25.675 59.6087" fill="white"/>
<path d="M63.2341 93.1929C63.2341 93.1929 62.7555 85.1748 61.6259 77.4104C60.3824 68.8594 53.3537 63.9798 42.832 63.6363C38.6699 63.5006 32.4593 59.8681 31.0257 56.0895C29.4186 51.8517 28.0469 45.8564 25.3944 45.6251C22.5359 45.3766 23.4828 55.5444 25.675 59.6087" stroke="url(#paint3_linear_333_889)" stroke-width="1.7" stroke-miterlimit="10"/>
<path d="M28.9387 60.5848C28.9387 60.5848 25.3222 59.1192 22.838 53.4147C20.3539 47.709 19.4768 41.8637 16.1156 42.4482C12.7544 43.0327 15.823 52.1231 16.7001 56.054C17.5772 59.9848 20.7919 63.752 20.7919 63.752" fill="white"/>
<path d="M28.9387 60.5848C28.9387 60.5848 25.3222 59.1192 22.838 53.4147C20.3539 47.709 19.4768 41.8637 16.1156 42.4482C12.7544 43.0327 15.823 52.1231 16.7001 56.054C17.5772 59.9848 20.7919 63.752 20.7919 63.752" stroke="url(#paint4_linear_333_889)" stroke-width="1.7" stroke-miterlimit="10"/>
<path d="M22.9582 63.0513C22.9582 63.0513 18.3918 61.0601 14.0075 53.894C9.62323 46.7279 5.53091 43.4371 4.36184 47.2013C3.19277 50.9656 9.47667 61.4552 12.6919 64.979C13.4957 65.8601 14.4913 66.6467 15.5327 67.332" fill="white"/>
<path d="M22.9582 63.0513C22.9582 63.0513 18.3918 61.0601 14.0075 53.894C9.62323 46.7279 5.53091 43.4371 4.36184 47.2013C3.19277 50.9656 9.47667 61.4552 12.6919 64.979C13.4957 65.8601 14.4913 66.6467 15.5327 67.332" stroke="url(#paint5_linear_333_889)" stroke-width="1.7" stroke-miterlimit="10"/>
<path d="M20.0577 66.331C20.0577 66.331 15.2624 64.1915 10.8781 57.0254C6.49375 49.8592 2.402 46.5684 1.23293 50.3327C0.0638591 54.097 6.34776 64.5865 9.56299 68.1104C10.3668 68.9914 12.5904 71.6513 13.6318 72.3361" fill="white"/>
<path d="M20.0577 66.331C20.0577 66.331 15.2624 64.1915 10.8781 57.0254C6.49375 49.8592 2.402 46.5684 1.23293 50.3327C0.0638591 54.097 6.34776 64.5865 9.56299 68.1104C10.3668 68.9914 12.5904 71.6513 13.6318 72.3361" stroke="url(#paint6_linear_333_889)" stroke-width="1.7" stroke-miterlimit="10"/>
<path d="M81.5 87.5L83 104" stroke="url(#paint7_linear_333_889)" stroke-width="1.5"/>
<path d="M38.5 88L37 104.5" stroke="url(#paint8_linear_333_889)" stroke-width="1.5"/>
<path d="M46.2493 86.3069C46.2493 86.3069 40.6198 89.8233 30.1497 86.7003C27.8911 86.0264 17.7576 82.1459 16.3349 80.9488C9.30106 75.0302 8.47091 73.3527 9.41842 72.668C13.2176 69.9216 21.4555 77.2023 30.6558 76.4672" fill="white"/>
<path d="M46.2493 86.3069C46.2493 86.3069 40.6198 89.8233 30.1497 86.7003C27.8911 86.0264 17.7576 82.1459 16.3349 80.9488C9.30106 75.0302 8.47091 73.3527 9.41842 72.668C13.2176 69.9216 21.4555 77.2023 30.6558 76.4672" stroke="url(#paint9_linear_333_889)" stroke-width="1.7" stroke-miterlimit="10"/>
<path d="M59.8555 103.113C59.8555 103.113 60.1211 86.849 61.3703 77.2273C62.4827 68.6579 69.6426 63.7967 80.1642 63.4532C84.3264 63.3175 90.537 59.6849 91.9706 55.9064C93.5776 51.6686 94.9494 45.6733 97.6018 45.442C100.46 45.1935 99.5134 55.3613 97.3213 59.4256" fill="white"/>
<path d="M59.8555 103.113C59.8555 103.113 60.1211 86.849 61.3703 77.2273C62.4827 68.6579 69.6426 63.7967 80.1642 63.4532C84.3264 63.3175 90.537 59.6849 91.9706 55.9064C93.5776 51.6686 94.9494 45.6733 97.6018 45.442C100.46 45.1935 99.5134 55.3613 97.3213 59.4256" stroke="url(#paint10_linear_333_889)" stroke-width="1.7" stroke-miterlimit="10"/>
<path d="M94.0625 60.4016C94.0625 60.4016 97.6791 58.936 100.163 53.2315C102.647 47.527 103.524 41.6811 106.886 42.2656C110.247 42.8501 107.178 51.9405 106.301 55.8714C105.424 59.8022 102.209 63.5694 102.209 63.5694" fill="white"/>
<path d="M94.0625 60.4016C94.0625 60.4016 97.6791 58.936 100.163 53.2315C102.647 47.527 103.524 41.6811 106.886 42.2656C110.247 42.8501 107.178 51.9405 106.301 55.8714C105.424 59.8022 102.209 63.5694 102.209 63.5694" stroke="url(#paint11_linear_333_889)" stroke-width="1.7" stroke-miterlimit="10"/>
<path d="M100.039 62.8682C100.039 62.8682 104.605 60.877 108.99 53.7109C113.374 46.5448 117.466 43.254 118.635 47.0182C119.804 50.7825 113.52 61.2721 110.305 64.7959C109.501 65.677 108.505 66.4636 107.464 67.1489" fill="white"/>
<path d="M100.039 62.8682C100.039 62.8682 104.605 60.877 108.99 53.7109C113.374 46.5448 117.466 43.254 118.635 47.0182C119.804 50.7825 113.52 61.2721 110.305 64.7959C109.501 65.677 108.505 66.4636 107.464 67.1489" stroke="url(#paint12_linear_333_889)" stroke-width="1.7" stroke-miterlimit="10"/>
<path d="M102.941 66.1484C102.941 66.1484 107.737 64.0089 112.121 56.8427C116.505 49.6766 120.597 46.3858 121.766 50.1501C122.935 53.9143 116.651 64.4039 113.436 67.9277C112.632 68.8088 110.278 71.5014 109.236 72.1866" fill="white"/>
<path d="M102.941 66.1484C102.941 66.1484 107.737 64.0089 112.121 56.8427C116.505 49.6766 120.597 46.3858 121.766 50.1501C122.935 53.9143 116.651 64.4039 113.436 67.9277C112.632 68.8088 110.278 71.5014 109.236 72.1866" stroke="url(#paint13_linear_333_889)" stroke-width="1.7" stroke-miterlimit="10"/>
<path d="M76.75 86.1234C76.75 86.1234 82.3795 89.6397 92.8496 86.5167C95.1082 85.8428 105.242 81.9623 106.664 80.7652C113.698 74.8466 114.528 73.1691 113.581 72.4844C109.782 69.738 101.544 77.0187 92.3435 76.2836" fill="white"/>
<path d="M76.75 86.1234C76.75 86.1234 82.3795 89.6397 92.8496 86.5167C95.1082 85.8428 105.242 81.9623 106.664 80.7652C113.698 74.8466 114.528 73.1691 113.581 72.4844C109.782 69.738 101.544 77.0187 92.3435 76.2836" stroke="url(#paint14_linear_333_889)" stroke-width="1.7" stroke-miterlimit="10"/>
<path d="M34.5047 39.4371C33.7942 36.5906 37.4944 36.4892 37.4944 36.4892C37.4944 36.4892 36.7272 32.8681 39.6607 32.8927C42.5943 32.9179 42.4122 40.364 42.4122 40.364C42.4122 40.364 35.2152 42.2836 34.5047 39.4371Z" fill="white" stroke="url(#paint15_linear_333_889)" stroke-width="1.7" stroke-miterlimit="10"/>
<path d="M31.106 25.2732C31.8792 23.6631 33.4536 25.1601 33.4536 25.1601C33.4536 25.1601 34.4943 23.1689 35.7029 24.404C36.9116 25.6396 34.0416 29 34.0416 29C34.0416 29 30.3328 26.8838 31.106 25.2732Z" stroke="url(#paint16_linear_333_889)" stroke-width="1.7" stroke-miterlimit="10"/>
<defs>
<linearGradient id="paint0_linear_333_889" x1="90.632" y1="9.00612" x2="93.4733" y2="10.1558" gradientUnits="userSpaceOnUse">
<stop stop-color="#2C5E5B"/>
<stop offset="1" stop-color="#415C7A"/>
</linearGradient>
<linearGradient id="paint1_linear_333_889" x1="81.2321" y1="1.86878" x2="84.5148" y2="3.16573" gradientUnits="userSpaceOnUse">
<stop stop-color="#2C5E5B"/>
<stop offset="1" stop-color="#415C7A"/>
</linearGradient>
<linearGradient id="paint2_linear_333_889" x1="50.9145" y1="17.7889" x2="71.784" y2="27.4115" gradientUnits="userSpaceOnUse">
<stop stop-color="#2C5E5B"/>
<stop offset="1" stop-color="#415C7A"/>
</linearGradient>
<linearGradient id="paint3_linear_333_889" x1="31.7491" y1="52.5089" x2="54.3622" y2="59.9496" gradientUnits="userSpaceOnUse">
<stop stop-color="#2C5E5B"/>
<stop offset="1" stop-color="#415C7A"/>
</linearGradient>
<linearGradient id="paint4_linear_333_889" x1="17.527" y1="45.4983" x2="26.011" y2="47.7535" gradientUnits="userSpaceOnUse">
<stop stop-color="#2C5E5B"/>
<stop offset="1" stop-color="#415C7A"/>
</linearGradient>
<linearGradient id="paint5_linear_333_889" x1="8.06675" y1="48.771" x2="18.6845" y2="52.3929" gradientUnits="userSpaceOnUse">
<stop stop-color="#2C5E5B"/>
<stop offset="1" stop-color="#415C7A"/>
</linearGradient>
<linearGradient id="paint6_linear_333_889" x1="4.98475" y1="52.1735" x2="15.8816" y2="55.6371" gradientUnits="userSpaceOnUse">
<stop stop-color="#2C5E5B"/>
<stop offset="1" stop-color="#415C7A"/>
</linearGradient>
<linearGradient id="paint7_linear_333_889" x1="81.808" y1="89.8891" x2="82.7556" y2="89.9232" gradientUnits="userSpaceOnUse">
<stop stop-color="#2C5E5B"/>
<stop offset="1" stop-color="#415C7A"/>
</linearGradient>
<linearGradient id="paint8_linear_333_889" x1="38.192" y1="90.3891" x2="37.2444" y2="90.4232" gradientUnits="userSpaceOnUse">
<stop stop-color="#2C5E5B"/>
<stop offset="1" stop-color="#415C7A"/>
</linearGradient>
<linearGradient id="paint9_linear_333_889" x1="16.7265" y1="74.355" x2="29.4487" y2="86.0645" gradientUnits="userSpaceOnUse">
<stop stop-color="#2C5E5B"/>
<stop offset="1" stop-color="#415C7A"/>
</linearGradient>
<linearGradient id="paint10_linear_333_889" x1="67.9721" y1="53.7888" x2="91.2667" y2="60.096" gradientUnits="userSpaceOnUse">
<stop stop-color="#2C5E5B"/>
<stop offset="1" stop-color="#415C7A"/>
</linearGradient>
<linearGradient id="paint11_linear_333_889" x1="97.0113" y1="45.3157" x2="105.495" y2="47.5708" gradientUnits="userSpaceOnUse">
<stop stop-color="#2C5E5B"/>
<stop offset="1" stop-color="#415C7A"/>
</linearGradient>
<linearGradient id="paint12_linear_333_889" x1="103.887" y1="48.5879" x2="114.504" y2="52.2096" gradientUnits="userSpaceOnUse">
<stop stop-color="#2C5E5B"/>
<stop offset="1" stop-color="#415C7A"/>
</linearGradient>
<linearGradient id="paint13_linear_333_889" x1="106.836" y1="51.9957" x2="117.736" y2="55.4553" gradientUnits="userSpaceOnUse">
<stop stop-color="#2C5E5B"/>
<stop offset="1" stop-color="#415C7A"/>
</linearGradient>
<linearGradient id="paint14_linear_333_889" x1="84.3788" y1="74.1714" x2="97.101" y2="85.8809" gradientUnits="userSpaceOnUse">
<stop stop-color="#2C5E5B"/>
<stop offset="1" stop-color="#415C7A"/>
</linearGradient>
<linearGradient id="paint15_linear_333_889" x1="36.0569" y1="34.0661" x2="40.4493" y2="35.7791" gradientUnits="userSpaceOnUse">
<stop stop-color="#2C5E5B"/>
<stop offset="1" stop-color="#415C7A"/>
</linearGradient>
<linearGradient id="paint16_linear_333_889" x1="32.0267" y1="24.724" x2="34.7624" y2="25.8048" gradientUnits="userSpaceOnUse">
<stop stop-color="#2C5E5B"/>
<stop offset="1" stop-color="#415C7A"/>
</linearGradient>
</defs>
</svg>
