<svg width="29" height="24" viewBox="0 0 29 24" fill="none" xmlns="http://www.w3.org/2000/svg">
<path d="M24.4301 0H4.69811C2.14771 0 0 2.23256 0 4.88372V16.8837C0 20.7907 3.08732 24 6.84581 24H22.1482C25.9067 24 28.994 20.7907 28.994 16.8837V4.88372C29.1283 2.23256 26.9805 0 24.4301 0ZM23.6248 3.2093L15.9735 12.2791C15.5709 12.6977 15.0339 12.9767 14.497 12.9767C13.9601 12.9767 13.4232 12.6977 13.0205 12.2791L5.36926 3.2093H23.6248ZM22.1482 20.9302H6.84581C4.6981 20.9302 3.08733 19.1163 3.08733 17.0233V5.30233L10.7385 14.3721C11.6781 15.4884 13.1547 16.186 14.6312 16.186C16.1078 16.186 17.4501 15.4884 18.524 14.3721L26.1752 5.30233V16.8837C26.0409 19.1163 24.2959 20.9302 22.1482 20.9302Z" fill="#4C9583"/>
</svg>
