<svg width="21" height="30" viewBox="0 0 21 30" fill="none" xmlns="http://www.w3.org/2000/svg">
<path d="M16.0736 0H4.68813C2.0092 0 0 2.14314 0 4.68813V24.5122C0 27.1911 2.14314 29.2003 4.68813 29.2003H16.0736C18.7525 29.2003 20.7617 27.0572 20.7617 24.5122V4.68813C20.7617 2.14314 18.6186 0 16.0736 0ZM2.94682 4.68813C2.94682 3.7505 3.7505 3.08077 4.55418 3.08077H15.9396C16.8773 3.08077 17.547 3.88445 17.547 4.68813V24.5122C17.547 25.4498 16.7433 26.1196 15.9396 26.1196H4.55418C3.61656 26.1196 2.94682 25.3159 2.94682 24.5122V4.68813V4.68813Z" fill="#4C9583"/>
</svg>
