<svg width="25" height="30" viewBox="0 0 25 30" fill="none" xmlns="http://www.w3.org/2000/svg">
<path d="M19.3875 0H6.34642C3.27793 0 0.976562 2.14314 0.976562 4.68813V24.5122C0.976562 27.1911 3.43135 29.2003 6.34642 29.2003H19.3875C22.456 29.2003 24.7573 27.0572 24.7573 24.5122V4.68813C24.7573 2.14314 22.3026 0 19.3875 0ZM4.3519 4.68813C4.3519 3.7505 5.27245 3.08077 6.19299 3.08077H19.2341C20.308 3.08077 21.0752 3.88445 21.0752 4.68813V24.5122C21.0752 25.4498 20.1546 26.1196 19.2341 26.1196H6.19299C5.11902 26.1196 4.3519 25.3159 4.3519 24.5122V4.68813Z" fill="#4C9583"/>
<path d="M14.4771 24.6464H11.2552C10.3346 24.6464 9.41406 23.9766 9.41406 23.039C9.41406 22.2353 10.1812 21.4316 11.2552 21.4316H14.4771C15.3976 21.4316 16.3182 22.1014 16.3182 23.039C16.1647 23.9766 15.3976 24.6464 14.4771 24.6464Z" fill="#4C9583"/>
</svg>
