<svg width="34" height="24" viewBox="0 0 34 24" fill="none" xmlns="http://www.w3.org/2000/svg">
<path d="M28.3772 0H5.77581C2.85455 0 0.394531 2.23256 0.394531 4.88372V16.8837C0.394531 20.7907 3.9308 24 8.23582 24H25.7634C30.0684 24 33.6047 20.7907 33.6047 16.8837V4.88372C33.7585 2.23256 31.2985 0 28.3772 0ZM27.4547 3.2093L18.6909 12.2791C18.2296 12.6977 17.6146 12.9767 16.9996 12.9767C16.3846 12.9767 15.7696 12.6977 15.3084 12.2791L6.54457 3.2093H27.4547ZM25.7634 20.9302H8.23582C5.77581 20.9302 3.93081 19.1163 3.93081 17.0233V5.30233L12.6946 14.3721C13.7709 15.4884 15.4621 16.186 17.1534 16.186C18.8446 16.186 20.3821 15.4884 21.6122 14.3721L30.376 5.30233V16.8837C30.2222 19.1163 28.2234 20.9302 25.7634 20.9302Z" fill="#4C9583"/>
</svg>
